<svg version="1.2" xmlns="http://www.w3.org/2000/svg" viewBox="0 0 92 25" width="92" height="25"><style>.s0{fill:#ffffff}</style><path class="s0" d="m0.3 23.8q0.1-0.1 0.3-0.3q0.2-0.2 0.5-0.7q0.3-0.5 0.7-1.4q0.4-1 0.8-2.6q0.2-0.9 0.5-2.2q0.4-1.4 0.8-2.9q0.4-1.6 0.8-3.2q0.4-1.6 0.8-3.1q0.4-1.4 0.8-2.6q0.3-1.2 0.5-1.9q-0.5 0.4-1 0.7q-0.4 0.4-0.9 0.8q-0.5 0.5-0.9 0.9q-0.4-0.3-0.6-0.6q-0.1-0.2-0.2-0.3q-0.1-0.4-0.1-0.9q0-0.4 0.6-0.8q0.4-0.3 1.1-0.7q0.7-0.5 1.7-0.9q1-0.4 2.4-0.8q1.4-0.3 3.1-0.3q1.6 0 2.6 0.7q1 0.7 1.6 1.6q0.5 1 0.7 2q0.1 1.1 0.1 1.9q-0.2 1.4-1 3q-0.8 1.7-2.2 3q-1.4 1.4-3.4 2.3q-2 1-4.6 1.1q-0.2 1-0.4 2.1q-0.2 1-0.4 2q-0.3 1.1-0.5 1.9q-0.3 0.9-0.5 1.6q-0.3 0.6-0.7 1.1q-0.5 0.4-1.4 0.4q-0.5 0-0.9-0.3q-0.4-0.2-0.7-0.6zm6.7-14.1q0.2-1.1 0.6-2.8q0.4-1.7 1.1-4.3q-0.1-0.3-0.3-0.4q-0.1-0.1-0.1-0.2q0.6-0.3 1.2-0.4q0.7-0.2 1.3-0.2q0.7 0 1.4 0.2q0.7 0.2 1.2 0.8q0.5 0.5 0.8 1.4q0.3 0.9 0.2 2.2q-0.2 1.4-0.6 2.5q-0.5 1.1-1.2 2q-0.7 0.9-1.5 1.6q-0.8 0.6-1.7 1.1q-0.9 0.5-1.7 0.8q-0.9 0.2-1.6 0.3q0.1-0.8 0.2-1.5q0.2-0.7 0.2-1.1q0.2-0.7 0.5-2zm17.4 6.1q-0.3 1-0.7 1.9q-0.5 0.8-1.1 1.5q-0.6 0.6-1.4 1q-0.8 0.3-1.7 0.3q-1.1 0-1.7-0.4q-0.6-0.5-0.9-1.2q-0.3-0.7-0.4-1.5q-0.1-0.8-0.1-1.5q0-0.5 0.2-1.1q0.1-0.6 0.3-1.3q0.2-0.6 0.5-1.2q0.4-0.7 0.8-1.2q0.2-0.5 0.5-0.8q0.3-0.3 0.8-0.6q0.4-0.2 0.9-0.3q0.5-0.1 1-0.1q0.1 0 0.1 0q0.1 0 0.2 0.1q0.3 0 0.8 0.2q0.5 0.3 1 0.7q0.5 0.5 0.9 1.2q0.3 0.8 0.3 1.8q0 0.2 0 0.5q0 0.3-0.1 0.5q0.6-0.2 1.3-0.6q0.7-0.3 1.3-0.7q0.6-0.4 1.1-0.8q0.5-0.4 0.9-0.7q0.2-0.2 0.4-0.2q0.2-0.1 0.3 0.1q0.1 0.1 0 0.3q0 0.3-0.3 0.6q-0.1 0.1-0.7 0.6q-0.5 0.5-1.2 1q-0.8 0.6-1.6 1.1q-0.9 0.5-1.7 0.8zm-3.6-4.8q0.4-0.3 0.9-0.3q0.4 0 0.6 0.3q0.2 0.3 0.4 0.7q0.1 0.4 0.2 1q0 0.5 0 1q0 0.2-0.1 0.5q-0.1 0.3-0.2 0.6q-0.1 0-0.2 0.1q-0.2 0-0.3 0q-0.8 0-1.3-0.3q-0.4-0.2-0.6-0.6q-0.2-0.4-0.3-0.8q-0.1-0.5-0.1-0.9q0-0.3 0.1-0.5q0.4-0.5 0.9-0.8zm-2.5 4.4q0.1-0.5 0.3-1.1q0.4 1 1.1 1.6q0.8 0.6 1.8 0.6q0.2 0 0.3-0.1q0.2 0 0.4 0q-0.2 0.5-0.4 1q-0.3 0.4-0.6 0.8q-0.3 0.3-0.7 0.6q-0.4 0.2-0.9 0.2q-0.4 0-0.7-0.2q-0.2-0.3-0.4-0.6q-0.2-0.4-0.2-0.8q-0.1-0.5-0.1-1q0-0.4 0.1-1zm7.9 4.5q-0.2 0.2-0.4 0.3q-0.2 0.1-0.4 0.1q-0.2-0.1-0.2-0.3q-0.1-0.2 0.1-0.5q0.1-0.2 0.3-0.8q0.3-0.5 0.7-1.3q0.4-0.8 0.8-1.7q0.5-0.9 0.9-1.7q0.4-0.8 0.7-1.5q0.4-0.6 0.5-0.9q-0.2-0.3-0.3-0.4q-0.2-0.1-0.2-0.5q-0.1-0.3 0.2-0.9q0.2-0.6 0.5-1.1q0.3-0.5 0.8-0.9q0.4-0.3 0.8-0.3q0.7 0 1 0.5q0.3 0.4 0.4 0.9q0 0.4-0.1 0.9q-0.1 0.5-0.4 0.9q0.1 0.1 0.3 0.2q0.1 0 0.4 0q0.4 0 0.6 0q0.1-0.1 0.5-0.1q0.5 0 0.7 0.3q0.3 0.2 0.5 0.5q0.2 0.3 0.3 0.7q0.1 0.4 0.1 0.7q0.1 0.7-0.3 1.4q-0.4 0.7-1.1 1.6q-0.3 0.5-0.7 1.1q-0.4 0.7-0.3 1.2q0 0.4 0.2 0.6q0.1 0.2 0.7 0.2q0.5 0 1-0.3q0.5-0.4 1.1-0.9q0.6-0.5 1.1-1.1q0.6-0.6 1.1-1.2q0.4-0.6 0.8-1.1q0.3-0.5 0.5-0.7q0.1-0.2 0.3-0.3q0.2-0.1 0.4 0q0.1 0.1 0.2 0.3q0 0.3-0.2 0.7q-0.2 0.2-0.6 0.8q-0.4 0.6-0.9 1.3q-0.5 0.7-1.2 1.5q-0.7 0.7-1.4 1.3q-0.7 0.7-1.4 1.1q-0.8 0.4-1.4 0.4q-0.7 0-1.2-0.3q-0.4-0.3-0.7-0.6q-0.3-0.4-0.4-0.9q-0.1-0.5-0.1-0.9q0.1-0.3 0.2-0.6q0.1-0.4 0.3-0.8q0.2-0.3 0.5-0.7q0.2-0.4 0.4-0.8q0.4-0.7 0.7-1.3q0.3-0.5 0.3-0.9q0-0.2-0.1-0.4q-0.1-0.2-0.4-0.2q-0.1 0-0.2 0q-0.1 0-0.1 0q-0.1 0-0.2 0q-0.1 0-0.4 0q-0.3 0-0.5-0.1q-0.3-0.1-0.5-0.1q-0.1 0.2-0.5 0.8q-0.3 0.6-0.8 1.4q-0.5 0.8-1.1 1.7q-0.5 0.9-1 1.7q-0.5 0.8-0.8 1.3q-0.3 0.6-0.4 0.7zm21.7-6.6q0.1-0.1 0.3-0.2q0.2 0 0.3 0.1q0.1 0 0.1 0.2q0 0.2-0.1 0.5q-0.6 1-1.4 2.2q-0.9 1.1-1.8 2.2q-1 1-1.9 1.6q-0.9 0.7-1.5 0.7q-0.9 0-1.4-0.3q-0.6-0.4-0.9-0.9q-0.4-0.5-0.5-1.1q-0.1-0.6-0.1-1.1q0-0.4 0.2-1.5q0.2-1.1 0.4-2.5q0.3-1.5 0.6-3.1q0.3-1.7 0.7-3.2q-0.4 0-0.9 0.1q-0.4 0.1-0.8 0.1q-0.8 0-1.6-0.2q-0.8-0.2-1.1-0.4q-0.2-0.1-0.2-0.3q0-0.2 0.2-0.4q0.1-0.2 0.3-0.4q0.2-0.1 0.3-0.1q0.5 0 1.1 0.1q0.6 0 1.3 0q0.5 0 1-0.1q0.4 0 0.9-0.1q0.3-1.3 0.6-2.2q0.4-1 0.6-1.3q0.1-0.2 0.4-0.3q0.3 0 0.6-0.1q0.3 0 0.6 0q0.3 0.1 0.4 0.2q0.1 0.2 0.1 1.1q0 0.9-0.3 2.2q1.1 0 2 0.1q0.9 0.1 1.5 0.3q0.6 0.1 0.9 0.3q0.4 0.1 0.6 0.2q0.2 0 0.2 0.2q0 0.3-0.1 0.5q-0.1 0.2-0.3 0.4q-0.2 0.1-0.5 0.1q-0.2-0.1-0.6-0.1q-0.3-0.1-0.8-0.2q-0.4 0-1.1-0.1q-0.6 0-1.4 0q-0.2 0-0.4 0q-0.2 0-0.4 0q-0.1 0.4-0.2 0.8q-0.1 0.4-0.2 0.9q-0.4 1-0.8 2.3q-0.4 1.1-1 2.5q-0.5 1.4-1.2 3q-0.2 1.1 0 1.7q0.2 0.6 0.5 0.8q0.3 0.3 0.8 0.4q0.4 0 1-0.3q0.6-0.4 1.2-0.9q0.6-0.6 1.2-1.2q0.6-0.7 1.2-1.3q0.5-0.6 0.9-1.2q0.4-0.5 0.5-0.7zm-1.9 6.3q1.1-4.9 1.8-7.9q0.7-2.9 1.1-4.5q0.4-1.8 0.6-2.5q0-0.6 0.1-1q0.1-0.4 0.1-0.9q0-0.4-0.1-0.8q0.2-0.1 0.4-0.2q0.3-0.1 0.5-0.2q0.3 0 0.6-0.1q0.3 0 0.5 0q0.2 0 0.4 0q0.2 0 0.3 0.2q0.1 0.1 0.1 0.5q0 0.4-0.1 0.8q-0.1 0.5-0.2 1.1q-0.3 1.1-0.9 3.3q-0.4 1.8-1.2 4.9q-0.8 3.2-2.1 8q-0.1 0.1-0.3 0.1q-0.2 0.1-0.3 0.1q-0.2 0-0.4 0q-0.2-0.1-0.4-0.2q-0.1-0.1-0.3-0.3q-0.2-0.1-0.2-0.4zm19.8-4.9q-0.4 0.6-0.9 1.3q-0.6 0.8-1.2 1.6q-0.7 0.8-1.3 1.4q-0.5 0.7-0.9 0.9q-0.3 0.2-0.7 0.3q-0.3 0.1-0.7 0.1q-0.3 0.1-0.6 0q-0.3-0.1-0.6-0.2q-0.2-0.2-0.4-0.6q-0.1-0.2-0.2-0.7q-0.1-0.5-0.1-1.2q-0.7 1-1.4 1.6q-0.8 0.6-1.5 0.8q-0.8 0.3-1.6 0.4q-0.3 0-0.7-0.3q-0.5-0.2-0.8-0.8q-0.2-0.5-0.3-1.4q-0.1-0.8 0.2-2q0.4-1.6 1.2-2.9q0.8-1.4 1.7-2.3q1-0.9 1.9-1.4q0.9-0.5 1.5-0.4q0.7 0.1 1.2 0.4q0.3 0.3 0.5 0.8q0.1 0.5-0.5 1.3q0.4 0 0.7-0.1q0.2 0 0.3 0q0.2 0 0.2 0q0.1 0.1 0.1 0.3q0 0.1-0.1 0.6q-0.1 0.4-0.2 1.2q-0.2 0.8-0.5 2q0 0.2-0.1 0.4q0 0.2 0 0.4q-0.1 0.2-0.1 0.5q-0.1 0.2-0.2 0.6q0 0.3 0 0.5q0 0.3 0.1 0.6q0.1 0.2 0.3 0.3q0.1 0.2 0.5 0.2q0.2 0 0.6-0.3q0.5-0.4 0.9-0.9q0.5-0.5 1-1.1q0.5-0.6 1-1.2q0.4-0.6 0.8-1.1q0.4-0.4 0.5-0.6q0.2-0.3 0.4-0.3q0.2 0 0.4 0.1q0.1 0.2 0 0.5q-0.1 0.3-0.4 0.7zm-7.9 1.6q-0.2 0.3-0.6 0.7q-0.3 0.3-0.6 0.6q-0.4 0.3-0.8 0.5q-0.4 0.2-0.8 0.2q-0.3 0.1-0.6-0.2q-0.2-0.2-0.2-0.7q-0.1-0.5 0-1.2q0.1-0.7 0.3-1.5q0.3-0.8 0.7-1.4q0.9-1.7 1.7-2.3q0.7-0.6 1-0.4q0 0.1 0.1 0.3q0 0.1 0 0.4q-0.1 0.3-0.3 0.7q0.2 0 0.4-0.1q0.2 0 0.4 0q0.1-0.1 0.3-0.1q0.1 0 0 0.4q-0.1 0.4-0.2 1.1q-0.1 0.6-0.3 1.4q-0.2 0.7-0.3 1.2q-0.1 0.1-0.2 0.4zm14 4.3q-0.6 0-1.1-0.2q-0.4-0.2-0.7-0.6q-0.2-0.3-0.3-0.8q-0.1-0.5 0-1.1q0.1-0.3 0.3-1q0.2-0.6 0.4-1.3q0.2-0.7 0.4-1.5q0.1-0.7 0.2-1.3q0-0.6-0.1-1q-0.1-0.3-0.4-0.3q-0.4 0-0.9 0.2q-0.4 0.3-0.9 0.8q-0.5 0.5-0.9 1.1q-0.5 0.6-0.9 1.3q-0.3 0.9-0.4 1.5q-0.2 0.7-0.3 1.3q-0.1 0.5-0.2 0.9q-0.1 0.4-0.2 0.8q-0.1 0.2-0.5 0.5q-0.4 0.2-0.8 0.4q-0.5 0.2-0.8 0.2q-0.3 0-0.3-0.3q0-0.1 0.2-0.7q0.1-0.5 0.3-1.3q0.2-0.7 0.4-1.6q0.2-0.8 0.4-1.6q0.2-0.6 0.3-1.3q0.2-0.7 0.4-1.5q0.2-0.9 0.4-1.9q0.2-0.1 0.4-0.2q0.2-0.1 0.4-0.2q0.2 0 0.5-0.1q0.2 0 0.4 0.1q0.2 0 0.4 0q0.2 0.1 0.3 0.2q-0.1 0.2-0.2 0.6q-0.1 0.3-0.2 0.7q-0.1 0.4-0.2 0.8q0.3-0.4 0.7-0.9q0.5-0.5 1-0.9q0.5-0.4 1.1-0.7q0.6-0.2 1.2-0.2q0.5 0 0.9 0.3q0.4 0.3 0.6 0.8q0.2 0.5 0.3 1.2q0 0.7-0.2 1.6l-0.3 1.1q-0.2 0.6-0.4 1.3q-0.2 0.8-0.5 1.7q-0.1 0.6-0.1 1q0.1 0.4 0.5 0.4q0.5 0 1.2-0.6q0.8-0.6 1.5-1.4q0.7-0.8 1.4-1.6q0.7-0.9 1-1.4q0.2-0.4 0.5-0.5q0.2-0.1 0.3 0q0.1 0.1 0.1 0.3q0 0.3-0.2 0.7q-0.2 0.4-0.6 1q-0.4 0.6-0.9 1.3q-0.5 0.7-1.1 1.4q-0.6 0.7-1.3 1.3q-0.6 0.5-1.3 0.9q-0.6 0.3-1.2 0.3zm13-5.7q-0.1 0.9-0.2 1.6q-0.1 0.7-0.2 1.2q0 0.7 0.3 0.9q0.2 0.3 0.5 0.3q0.4 0 1-0.3q0.5-0.4 1.1-1q0.6-0.5 1.2-1.2q0.6-0.6 1.1-1.2q0.6-0.6 0.9-1.1q0.4-0.4 0.5-0.6q0.2-0.1 0.3-0.1q0.2-0.1 0.3 0q0.1 0.1 0.1 0.3q0 0.2-0.2 0.5q-0.3 0.5-0.8 1.2q-0.5 0.7-1.1 1.4q-0.6 0.7-1.3 1.4q-0.7 0.7-1.4 1.2q-0.6 0.5-1.2 0.9q-0.7 0.3-1.2 0.3q-0.3 0-0.7-0.2q-0.3-0.2-0.6-0.6q-0.2-0.3-0.4-0.7q-0.1-0.5-0.1-0.9q0-0.2 0.1-0.6q-1.1 1.2-2.2 2q-1.2 0.7-2.2 0.7q-0.4 0-0.8-0.2q-0.4-0.2-0.7-0.6q-0.4-0.4-0.6-1.1q-0.2-0.7-0.1-1.7q0-1.5 0.6-2.9q0.5-1.4 1.3-2.4q0.8-1 1.8-1.6q1-0.6 2.1-0.6q0.4 0 0.8 0.2q0.4 0.3 0.6 0.6q0.3 0.4 0.5 0.8q0.1 0.4 0.2 0.8q0.2-0.8 0.4-1.5q0.1-0.7 0.3-1.4q0.2-1 0.5-2.1q0.3-1 0.6-2.3q0.4-1.2 0.8-2.6q0.3-0.2 0.5-0.3q0.2-0.2 0.4-0.2q0.3-0.1 0.5-0.1q0.3 0 0.5 0.1q0.2 0 0.3 0.3q0.2 0.3 0.2 0.9q0.1 0.5 0 1.5q0 1.1-0.4 2.5q-0.3 1.4-0.9 2.8q-0.6 1.5-1.4 3q-0.7 1.4-1.6 2.7zm-2.3 1.3q-0.4 0.6-1 1.1q-0.5 0.5-1.1 0.9q-0.6 0.4-1 0.4q-0.7 0-1-0.6q-0.4-0.5-0.4-1.8q0.1-0.8 0.5-1.8q0.3-1 0.9-1.9q0.5-0.9 1.2-1.5q0.6-0.6 1.2-0.6q0.4 0 0.7 0.3q0.2 0.3 0.3 0.8q0.2 0.4 0.2 0.8q0 0.4 0 0.6q0 0.3 0.1 0.4q0.1 0.2 0.4 0.1q0.1-0.1 0.1-0.1q0 0 0.1 0q-0.1 0.5-0.2 1q-0.1 0.5-0.2 1q-0.3 0.4-0.8 0.9z" /></svg>